HIERARCHY
ROOT Hips
{
	OFFSET -14.64140 90.27770 -84.91600
	CHANNELS 6 Xposition Yposition Zposition Zrotation Xrotation Yrotation
	JOINT Spine
	{
		OFFSET 0.00000 13.20850 -1.60436
		CHANNELS 3 Zrotation Xrotation Yrotation
		JOINT Spine1
		{
			OFFSET 0.00000 8.61716 0.00000
			CHANNELS 3 Zrotation Xrotation Yrotation
			JOINT Spine2
			{
				OFFSET 0.00000 8.61717 0.00000
				CHANNELS 3 Zrotation Xrotation Yrotation
				JOINT Spine3
				{
					OFFSET 0.00000 8.61717 0.00000
					CHANNELS 3 Zrotation Xrotation Yrotation
					JOINT Neck
					{
						OFFSET 0.00000 11.07920 1.10792
						CHANNELS 3 Zrotation Xrotation Yrotation
						JOINT Neck1
						{
							OFFSET 0.00000 7.08032 0.00000
							CHANNELS 3 Zrotation Xrotation Yrotation
							JOINT Head
							{
								OFFSET 0.00000 7.08031 0.00000
								CHANNELS 3 Zrotation Xrotation Yrotation
								End site
								{
									OFFSET 0.00000 0.00000 0.00000
								}
							}
						}
					}
					JOINT RightShoulder
					{
						OFFSET -0.01000 7.91373 5.19711
						CHANNELS 3 Zrotation Xrotation Yrotation
						JOINT RightArm
						{
							OFFSET -18.41580 0.00000 0.00000
							CHANNELS 3 Zrotation Xrotation Yrotation
							JOINT RightForeArm
							{
								OFFSET -29.11090 0.00000 0.00000
								CHANNELS 3 Zrotation Xrotation Yrotation
								JOINT RightHand
								{
									OFFSET -24.65040 0.00000 0.00000
									CHANNELS 3 Zrotation Xrotation Yrotation
									JOINT RightHandThumb1
									{
										OFFSET -5.35114 -0.85590 3.97906
										CHANNELS 3 Zrotation Xrotation Yrotation
										JOINT RightHandThumb2
										{
											OFFSET -4.52789 0.00000 0.00000
											CHANNELS 3 Zrotation Xrotation Yrotation
											JOINT RightHandThumb3
											{
												OFFSET -2.46976 0.00000 0.00000
												CHANNELS 3 Zrotation Xrotation Yrotation
												End site
												{
													OFFSET 0.00000 0.00000 0.00000
												}
											}
										}
									}
									JOINT RightHandIndex1
									{
										OFFSET -14.26970 0.00000 2.88139
										CHANNELS 3 Zrotation Xrotation Yrotation
										JOINT RightHandIndex2
										{
											OFFSET -5.48836 0.00000 0.00000
											CHANNELS 3 Zrotation Xrotation Yrotation
											JOINT RightHandIndex3
											{
												OFFSET -3.01859 0.00000 0.00000
												CHANNELS 3 Zrotation Xrotation Yrotation
												End site
												{
													OFFSET 0.00000 0.00000 0.00000
												}
											}
										}
									}
									JOINT RightHandMiddle1
									{
										OFFSET -14.26970 0.00000 -0.09147
										CHANNELS 3 Zrotation Xrotation Yrotation
										JOINT RightHandMiddle2
										{
											OFFSET -6.17441 0.00000 0.00000
											CHANNELS 3 Zrotation Xrotation Yrotation
											JOINT RightHandMiddle3
											{
												OFFSET -3.56743 0.00000 0.00000
												CHANNELS 3 Zrotation Xrotation Yrotation
												End site
												{
													OFFSET 0.00000 0.00000 0.00000
												}
											}
										}
									}
									JOINT RightHandRing1
									{
										OFFSET -12.69180 0.00000 -3.06433
										CHANNELS 3 Zrotation Xrotation Yrotation
										JOINT RightHandRing2
										{
											OFFSET -5.62556 0.00000 0.00000
											CHANNELS 3 Zrotation Xrotation Yrotation
											JOINT RightHandRing3
											{
												OFFSET -3.56744 0.00000 0.00000
												CHANNELS 3 Zrotation Xrotation Yrotation
												End site
												{
													OFFSET 0.00000 0.00000 0.00000
												}
											}
										}
									}
									JOINT RightHandPinky1
									{
										OFFSET -11.11390 0.00000 -6.03719
										CHANNELS 3 Zrotation Xrotation Yrotation
										JOINT RightHandPinky2
										{
											OFFSET -4.52789 0.00000 0.00000
											CHANNELS 3 Zrotation Xrotation Yrotation
											JOINT RightHandPinky3
											{
												OFFSET -2.46976 0.00000 0.00000
												CHANNELS 3 Zrotation Xrotation Yrotation
												End site
												{
													OFFSET 0.00000 0.00000 0.00000
												}
											}
										}
									}
								}
							}
						}
					}
					JOINT LeftShoulder
					{
						OFFSET 0.01000 7.91373 5.19711
						CHANNELS 3 Zrotation Xrotation Yrotation
						JOINT LeftArm
						{
							OFFSET 18.41580 0.00000 0.00000
							CHANNELS 3 Zrotation Xrotation Yrotation
							JOINT LeftForeArm
							{
								OFFSET 29.11090 0.00000 0.00000
								CHANNELS 3 Zrotation Xrotation Yrotation
								JOINT LeftHand
								{
									OFFSET 24.65040 0.00000 0.00000
									CHANNELS 3 Zrotation Xrotation Yrotation
									JOINT LeftHandThumb1
									{
										OFFSET 5.35114 -0.85590 3.97906
										CHANNELS 3 Zrotation Xrotation Yrotation
										JOINT LeftHandThumb2
										{
											OFFSET 4.52789 0.00000 0.00000
											CHANNELS 3 Zrotation Xrotation Yrotation
											JOINT LeftHandThumb3
											{
												OFFSET 2.46977 0.00000 0.00000
												CHANNELS 3 Zrotation Xrotation Yrotation
												End site
												{
													OFFSET 0.00000 0.00000 0.00000
												}
											}
										}
									}
									JOINT LeftHandIndex1
									{
										OFFSET 14.26970 0.00000 2.88139
										CHANNELS 3 Zrotation Xrotation Yrotation
										JOINT LeftHandIndex2
										{
											OFFSET 5.48836 0.00000 0.00000
											CHANNELS 3 Zrotation Xrotation Yrotation
											JOINT LeftHandIndex3
											{
												OFFSET 3.01859 0.00000 0.00000
												CHANNELS 3 Zrotation Xrotation Yrotation
												End site
												{
													OFFSET 0.00000 0.00000 0.00000
												}
											}
										}
									}
									JOINT LeftHandMiddle1
									{
										OFFSET 14.26970 0.00000 -0.09147
										CHANNELS 3 Zrotation Xrotation Yrotation
										JOINT LeftHandMiddle2
										{
											OFFSET 6.17440 0.00000 0.00000
											CHANNELS 3 Zrotation Xrotation Yrotation
											JOINT LeftHandMiddle3
											{
												OFFSET 3.56744 0.00000 0.00000
												CHANNELS 3 Zrotation Xrotation Yrotation
												End site
												{
													OFFSET 0.00000 0.00000 0.00000
												}
											}
										}
									}
									JOINT LeftHandRing1
									{
										OFFSET 12.69180 0.00000 -3.06433
										CHANNELS 3 Zrotation Xrotation Yrotation
										JOINT LeftHandRing2
										{
											OFFSET 5.62556 0.00000 0.00000
											CHANNELS 3 Zrotation Xrotation Yrotation
											JOINT LeftHandRing3
											{
												OFFSET 3.56744 0.00000 0.00000
												CHANNELS 3 Zrotation Xrotation Yrotation
												End site
												{
													OFFSET 0.00000 0.00000 0.00000
												}
											}
										}
									}
									JOINT LeftHandPinky1
									{
										OFFSET 11.11390 0.00000 -6.03719
										CHANNELS 3 Zrotation Xrotation Yrotation
										JOINT LeftHandPinky2
										{
											OFFSET 4.52789 0.00000 0.00000
											CHANNELS 3 Zrotation Xrotation Yrotation
											JOINT LeftHandPinky3
											{
												OFFSET 2.46976 0.00000 0.00000
												CHANNELS 3 Zrotation Xrotation Yrotation
												End site
												{
													OFFSET 0.00000 0.00000 0.00000
												}
											}
										}
									}
								}
							}
						}
					}
					JOINT pCube4
					{
						OFFSET 0.00000 10.91090 1.10792
						CHANNELS 3 Zrotation Xrotation Yrotation
						End site
						{
							OFFSET 0.00000 0.00000 0.00000
						}
					}
				}
			}
		}
	}
	JOINT RightUpLeg
	{
		OFFSET -9.98441 0.00000 0.00000
		CHANNELS 3 Zrotation Xrotation Yrotation
		JOINT RightLeg
		{
			OFFSET 0.00000 -42.11790 0.00000
			CHANNELS 3 Zrotation Xrotation Yrotation
			JOINT RightFoot
			{
				OFFSET 0.00000 -45.00020 -0.00001
				CHANNELS 3 Zrotation Xrotation Yrotation
				JOINT RightForeFoot
				{
					OFFSET 0.00000 -3.74820 0.00000
					CHANNELS 3 Zrotation Xrotation Yrotation
					JOINT RightToeBase
					{
						OFFSET 0.00000 0.06325 14.43120
						CHANNELS 3 Zrotation Xrotation Yrotation
						End site
						{
							OFFSET 0.00000 0.00000 0.00000
						}
					}
				}
			}
		}
	}
	JOINT LeftUpLeg
	{
		OFFSET 9.98441 0.00000 0.00000
		CHANNELS 3 Zrotation Xrotation Yrotation
		JOINT LeftLeg
		{
			OFFSET 0.00000 -42.11800 0.00000
			CHANNELS 3 Zrotation Xrotation Yrotation
			JOINT LeftFoot
			{
				OFFSET 0.00000 -45.00070 0.00000
				CHANNELS 3 Zrotation Xrotation Yrotation
				JOINT LeftForeFoot
				{
					OFFSET 0.00000 -3.74824 0.00000
					CHANNELS 3 Zrotation Xrotation Yrotation
					JOINT LeftToeBase
					{
						OFFSET 0.00000 0.06325 14.43110
						CHANNELS 3 Zrotation Xrotation Yrotation
						End site
						{
							OFFSET 0.00000 0.00000 0.00000
						}
					}
				}
			}
		}
	}
}
MOTION
Frames: 4
Frame Time: 0.050000
-0.00923690478833371 -0.006181859736199222 -0.001154905463768093 0.005505856132499319 -0.04352339435083983 0.03626883439479816 4.035586961229527 4.451095538612631 -1.84746575723202 -0.8942043403272105 3.9329331552229587 0.3926578991431907 -0.5973262865323669 -0.9437316915167617 0.40364989491613446 -0.5662090486183944 0.19175619220275844 -0.37423699410578226 -0.951287245296414 13.763239135374874 1.2691665239473036 0.23742808019758402 -0.934157495091647 3.3375342132972294 0.13264113920358128 -17.842341269445107 0.2524225462528509 -8.329741190771724 2.9927717033469774 -16.945486628877628 80.51383442666932 15.330115435442423 2.3298069516162982 -0.6623391180012187 5.986542453956725 55.2086939009743 14.28652508332402 -0.13393220232255942 -1.232079674655364 4.559602518291457 -0.16176955493381842 -1.6218525268490762 -0.014453210784220454 -0.0032275917966400574 -56.283175947036646 -0.0066788843677892005 0.006265242536508461 -56.22610775010684 -38.73266905478307 0.028897433371260082 -0.04477696680517142 0.03208774266990452 -0.010694967561392788 0.013064436735696404 0.047333413234239424 -0.012133454984887373 -0.040355258880662354 -36.738595084299625 0.015662780796164132 0.011755301612300803 -0.030753254654401044 0.00305568390809211 -0.017765072547704583 -0.003928363501593007 -0.0025934579328741074 0.033983027904878324 -19.791729083836042 -0.011042770021015278 0.004353285415099322 -0.04275139123995124 -0.044506410226020705 -0.03715325044260754 0.0191762340262004 -0.02097761469531503 0.046797578637052376 24.037168724403106 0.02646554306456668 -0.01956943580105699 28.841405679876292 -0.015808256132471804 -0.044510067893717614 28.848568668832943 0.005133607165350225 -0.027697319795678504 10.446860875622844 2.3567474121141703 14.944907693560873 -72.83624235288048 25.555487113558595 -18.014178474088627 16.704028604720076 -6.790881144899168 -71.9237447175259 -7.141092883453552 1.056878649468712 -2.572622294276426 -0.4703113235699525 0.04500893703785218 -8.108342079584414 0.009463376111878504 0.01679663326879878 44.53802756780659 0.021795947614920468 -0.03388049969649162 44.52488257497572 12.494907795962744 -0.0423984813516942 0.01675201818036105 -0.026293931350196673 0.007246532893858327 -0.02191489032179893 0.022160913134967975 0.009452338910886036 -0.013857306035752439 11.146927451932989 -0.01760243032066988 0.0032153470497383245 -0.02685302177730772 0.010029848366566474 0.04231556880468933 0.04511825270101977 0.02140689786971586 -0.008006657616169461 4.779821508781226 0.008403250439708182 0.008903764592824496 0.006695216002843331 -0.032791307624137865 -0.006989361053853476 -0.010535325176783447 -0.016823590546500074 -0.017374889464834606 -5.641674514502624 0.018733800924614942 0.001978608754378789 -6.677661701926967 -0.0029997037125068216 0.023187202615709897 -6.706285194815016 0.027367396223461616 -0.032900564955370824 -0.047835887366627 0.02470361855665677 0.03936852067566339 8.070313972667693 3.4587629420307264 -19.17012180905825 -0.0013739373617415458 10.400069848557699 -0.001080279989727942 -5.624409231777573 -15.706094536415986 3.155997224060015 -0.04842747701472441 -0.026514095665491306 0.03468207390784103 -0.03204710803840068 4.689159528415221 0.035809824719304176 12.448080844783734 -8.202666277339102 6.874725843152121 -0.03350127616227121 46.411342434155635 -0.004250620018832393 -4.369788022167149 -14.729587649638313 -3.8595357592847064 0.029880444961573223 -0.022401969131724004 -0.013706376482706763 -0.03166625897918494 -10.75655111199098 0.02660111219041153 
-0.005684346137719456 -0.02221985611438364 -0.04439873791220216 -0.007602807155424209 -0.020045720377314544 -0.04837652986021133 4.267077031196454 4.306665405390241 -1.885251549017567 -0.9239560069709227 3.9364771705736996 0.3587277197470788 -0.6002010744142523 -1.0271328979744418 0.4617582423228265 -0.4132640702280239 0.15601877196232003 -0.3328072827835378 -0.7124815863380789 13.884175387090828 0.6919686550945968 0.32576450702986204 -0.9311291109431228 1.9442150469735524 0.3745905375573035 -17.926696274438534 0.11911874305672147 -8.4583296114595 2.9598022042421372 -17.094236595327516 80.73882962428415 15.356062970023238 2.2011202764661624 -0.5243946408770286 5.707720469315292 54.475928993576865 14.424428984824385 -0.15598848282446753 -1.000583781426163 4.557372129847872 -0.13728382400655384 -1.619036387256819 0.04648271614055993 0.032709723476325225 -56.20782141297312 0.01352069455033574 0.03189622259560861 -56.251055802539206 -38.78145296107058 0.026240615992897117 -0.04641077709835018 -0.020670103556504227 -0.008611016592175509 0.03164439519965479 -0.04666377594081393 -0.022463803224763695 0.030695930261643647 -36.67776452191984 0.01129745505481076 -0.029463029983520767 -0.030961043998340418 0.008285619387268375 0.005722644817889621 0.00483016596723775 -0.025619354470709173 0.020718465830654745 -19.73992467459385 0.043071650468014 -0.004770316355242895 -0.01684881534240777 0.001788459017739486 0.011469317912243319 0.033815499981558514 0.0022529049884366967 -0.01951011723829883 24.041713819754648 0.021298507520559055 0.024518271280742125 28.891406486463236 -0.01820857757113527 -0.004761043672542657 28.854723256423394 -0.007311598375404662 0.0408951082854114 10.259465110656722 2.383680191080779 14.936762957712041 -72.8632492264975 26.44303482610978 -16.89910321695794 17.742606766501595 -8.28640201493219 -73.70129190349027 -6.253089609143921 1.5328555854271964 -3.8730511234068077 -0.5070271821271504 0.08424229086673247 -8.128553244575674 -0.02500492928396808 0.024351935693882883 44.54147028738304 0.035090176096561884 -0.00019887109451158732 44.57337460239932 12.494606304985593 -0.021359336059732743 -0.035332763294924026 -0.023833910863174778 -0.03943345818839502 -0.030182039779833424 -0.017450599030606632 0.0037319447071257963 0.002902097073347348 11.069875781212033 -0.03271119140849025 -0.020577220571861534 0.019914721552625813 0.02990365849147841 0.009342970093131883 0.010788986308205555 0.04463960350645367 0.013084174030823409 4.781890506034148 -0.04810205180484842 0.006028857752387959 -0.002647556695171166 -0.02710026223946856 0.0499047644179335 0.021171324342619684 0.00796505816435255 0.03480251735242244 -5.579710966134982 -0.03974466407405911 -0.014965428226615259 -6.760108302111936 0.017399278130312067 0.0019357917043817258 -6.6934413188741075 -0.005226401236789206 -0.028414228400114108 -0.02081060231008587 -0.04841760349538436 0.026201402404024493 7.997653902548969 3.502785778852417 -19.21514326184505 0.04745797622739647 10.360469742807433 0.02026436811402797 -5.6145600669051845 -15.66635121350787 3.1808733078551343 0.04711586071180994 -0.015150899099234727 0.04166094715123425 0.01472375548736193 4.69018411524697 -0.0036801526714268502 12.415284358209178 -8.236359513162112 6.8340040202262955 -0.03930350836510273 46.34016382658824 -0.019227288357016557 -4.297399815571173 -14.735504232561864 -3.8581410654588115 0.03507472000940418 0.02931452408546564 0.004118105703517894 -0.018754168797473436 -10.751308458943342 -0.03410906255719727 
0.04512501980782521 0.04069462180511732 0.0010796970868208141 -0.003771600150641339 0.03634561598733337 0.0013237316632185598 4.461403628693259 4.178192975198403 -1.8716328468487011 -0.8553397957435918 3.90360367153349 0.3874563344108534 -0.6133577105753245 -1.0188935213917851 0.44959377243206317 -0.2792753542590329 0.13378026161478346 -0.31734018934393593 -0.5445087051754275 13.953118036017594 0.11844388094062487 0.2965478717220765 -0.9168634791434885 0.5562731395038416 0.5660834856341 -18.021304429011646 -0.011027024836269097 -8.658906101636916 2.990887799157866 -17.28676779484142 80.96499024017788 15.325174125526283 1.9829993354002455 -0.33509937584862787 5.5979444141280155 53.47236500534146 14.594563552950524 -0.18799068708301594 -0.7202968800242436 4.490154009383952 -0.10848758465133178 -1.5442133826289128 0.009847542882609606 -0.0004753133668883412 -56.28373970230564 -0.00840962233525834 -0.023960391867481626 -56.27900766180602 -38.778183976455395 0.04268865945171864 0.012591959831670295 0.02830835399220965 5.499700857144144e-05 -0.03419000683861521 0.04521549243267838 0.029316611880628736 0.004325653032050971 -36.679596715302594 0.019805301445535328 -0.04414918342607859 0.03897345218136755 -0.0015034598940381523 -0.04365946223472302 0.021639598651643978 -0.007538715321037362 0.03510833228072235 -19.808126662014708 0.025681371277838646 0.026025089213840603 0.046376751438647675 -0.03387686267749389 0.038183282089562745 0.012497995320060403 0.002770448159540563 0.03634411958903353 24.064655551820852 -0.009054354821118625 0.03483073331457456 28.82253514008563 -0.0006955839324156729 0.002718200372038211 28.862638485864952 -0.03719245713636244 0.026355977810531537 10.053461389423177 2.329988075325039 14.943013694262975 -72.96493954704597 27.17542643886386 -15.796353164169108 18.165443626324027 -8.948485208612627 -75.5693877546191 -5.619441272821194 2.017292678480146 -5.085209452409087 -0.44497997975187903 0.0644847623371808 -8.110861355176532 0.029309115978035784 -0.03182694726262325 44.56427807985452 0.00929258387207569 0.007504925445043386 44.583617843599846 12.494603571271401 -0.03995725524686539 -0.025750637486821173 -0.03706722106241105 -0.015123252021593526 -0.000957855187324037 -0.04488587040189767 -0.004216030246028081 -0.03345893445739906 11.122562085421613 -0.03181863118634767 0.028831404193374363 -0.02481974376866449 -0.028531422464709796 -0.033574800717151645 0.03465716156408663 -0.03698009434008422 0.03233955796329046 4.777469739576045 -0.01106181408827506 0.0006176120243124674 0.02988888897565965 0.04431919394319624 -0.024691039012213367 -0.025608728545095324 0.0034889575425843 0.0075984059110896715 -5.572701559078612 -0.01478113455168113 0.012233298405864665 -6.730526739281094 -0.018759603780413307 -0.04973895477277432 -6.721436756089747 -0.028069298571465662 -0.02032234423185808 -0.04949992132753274 0.027000389353413187 0.048258988431943345 8.068282457869927 3.45346437158583 -19.195535852938058 0.028392761065644364 10.423345285931747 -0.014814265272006705 -5.573259883894707 -15.667665860685956 3.1586505292732308 0.007734651391426232 0.0006933775611473173 0.03735267750980299 0.021710267061070536 4.7289444669307805 0.013403801640277165 12.46194598593835 -8.209897783998573 6.902344152610672 -0.03910057314324237 46.34327787800729 -0.013821422990520478 -4.3219160445790745 -14.727887641930403 -3.876903125282128 0.04520658150623506 0.040739232164110434 0.026378763719777674 0.012555290047476105 -10.706417837415003 -0.03991323412116568 
0.014977863475571805 0.032488436199487096 -0.015715036658052746 0.007140580595066323 -0.024996353031579543 -0.03639235606647042 4.645970627939059 4.15008595501214 -1.9632673386776858 -0.8976413191152118 3.858125211682102 0.3632080382988146 -0.665490875175302 -1.1055240691665948 0.46531912240026774 -0.17210138968571656 0.15264313744168537 -0.36374999200625013 -0.33854081453201035 13.94871584204602 -0.4890241271237332 0.3513152585843226 -0.9896967864762586 -0.6447385265629397 0.8240558244598043 -18.18026453709141 -0.14901258257281044 -8.838289733386592 3.055628853876159 -17.496222323624245 81.22782579565083 14.797132584891848 1.793550452467114 -0.22614857355519297 5.449961466176284 52.31823571345657 14.737698115956546 -0.153950550123096 -0.5110902497835171 4.488426206088222 -0.10200122075227326 -1.5518662775998806 0.0077288745657807835 -0.01428213399240052 -56.246626854654714 0.01308132664982419 -0.0033915709926934804 -56.21676876509994 -38.730651039466906 -0.016857254072723836 0.0383928331667062 -0.04972527390463876 -0.027033552554299334 -0.02142524789643759 -0.005414801095591381 0.022470885133306213 -0.04660423579660743 -36.6866360993108 0.030199285548355295 0.0016903304105377694 -0.014963971366679277 -0.0019705843521957665 -0.005699792340874492 -0.004474622627602357 -0.049821504931742845 0.038927200196463396 -19.79716382880447 -0.014511051282029723 0.014462524556451766 0.04146483765625318 0.00031374321021691826 0.009777515124931071 -0.00262851547128835 -0.008098096748037426 -0.009442982658945685 24.06767761911824 -0.010857575639018917 0.04391611494496717 28.86111622700394 0.0033220028672724953 -0.014826048565822394 28.816002753352404 0.03777447110800258 -0.009830651140681497 9.901289258313144 2.362375821986397 14.981394054403369 -73.09645470011758 27.597781669827686 -14.847222749706114 17.792031845208857 -9.202445986768574 -76.32957934182976 -5.426626830036753 2.391915583730262 -5.871444295596218 -0.4690759973042129 0.04771868411718679 -8.133338898213795 -0.007032480573505886 0.02395396641464224 44.55977760319834 0.005517741740912782 -0.023760119505105412 44.59058476497812 12.50345080289512 -0.014941138598783581 -0.019550646460937817 0.017440026835272366 0.026031028710924397 -0.028644111476604166 0.028088366224457345 0.02026468830091948 -0.006658931092632636 11.11792154180044 -0.008520855859193476 0.029144846089652503 -0.004515606559644537 0.034784637436712555 -0.022828297704757184 -0.04591878431572483 0.005925095999952162 -0.034795040095435714 4.7251994866398555 0.006169763462748071 0.001020974173747795 0.0057995347448045005 0.022874683547950383 -0.025187758646206218 -0.006701889457970436 0.018074924217104292 -0.03581746105070478 -5.636910423584636 0.030808446272486082 0.01045525313128655 -6.7216706945201885 0.0021926663367869675 -0.046015923714944285 -6.755486135471414 -0.02354693312886104 -0.015432464838452791 -0.024660516767208512 -0.02356685904660567 -0.010523937707614704 8.06571758804573 3.5272515093704966 -19.2403020535612 -0.022356859018888002 10.406147162367501 0.017426174749390465 -5.63854491641045 -15.682110661920536 3.1828205520547606 0.0206950135663316 -0.04158704420153888 -0.018562199744662212 0.030322289853723074 4.654524936413731 0.006551636763645678 12.429726372053274 -8.253521760817526 6.856740490107058 -0.000960549019153005 46.403422577583235 0.044812241959569586 -4.292155173481643 -14.795156493534071 -3.83118865719179 0.031333366249369186 0.012663523753530708 -0.03866976756894493 -0.015980015583874293 -10.742139484356674 -0.031235276425288623 
